<svg xmlns="http://www.w3.org/2000/svg" fill="none" viewBox="0 0 24 24" stroke-width="1.5">
  <path stroke="#fbbf24" stroke-linecap="round" stroke-linejoin="round" d="M18 18.72a9.094 9.094 0 0 0 3.741-.479 3 3 0 0 0-4.682-2.72m-7.5-2.226A3 3 0 0 1 18 15.75a3 3 0 0 1-2.25 2.72m-7.5-2.226a3 3 0 0 0 3.741-.479 3 3 0 0 0-4.682-2.72M12 18.75a3 3 0 0 1-2.25-2.72m3.741-.479a3 3 0 0 1-4.682-2.72m4.682 2.72a3 3 0 0 0 3.741-.479m-12 .479a3 3 0 0 1-4.682-2.72M15 12a3 3 0 1 1-6 0 3 3 0 0 1 6 0Zm6 0a9 9 0 1 1-18 0 9 9 0 0 1 18 0Z" />
</svg>