<svg class="w-10 h-10 sm:w-12 sm:h-12 text-amber-400 mb-4" xmlns="http://www.w3.org/2000/svg" fill="#FFFF00" viewBox="0 0 24 24" stroke-width="1.5" stroke="#FFFF00"><path stroke-linecap="round" stroke-linejoin="round" d="M4.098 19.902a3.75 3.75 0 0 0 5.304 0l6.401-6.402M6.75 21A3.375 3.375 0 0 1 3.375 17.625a3.375 3.375 0 0 1 3.375-3.375h1.5a3.375 3.375 0 0 1 3.375 3.375v1.5a3.375 3.375 0 0 1-3.375 3.375h-1.5Zm9.152-16.652a3.375 3.375 0 0 1 0 4.773L12.9 11.25l4.773-4.773a3.375 3.375 0 0 1 0-4.774Z" /></svg>