<svg xmlns="http://www.w3.org/2000/svg" fill="none" viewBox="0 0 24 24" stroke-width="1.5">
  <path stroke="#fbbf24" stroke-linecap="round" stroke-linejoin="round" d="M2.25 18.75a60.07 60.07 0 0 1 15.797 2.101c.727.198 1.453-.342 1.453-1.096V18.75M3.75 4.5v.75A.75.75 0 0 1 3 6h-.75m0 0v-.375c0-.621.504-1.125 1.125-1.125H20.25M2.25 6v9m18-10.5v.75c0 .414.336.75.75.75h.75m-1.5-1.5h.375c.621 0 1.125.504 1.125 1.125v1.5c0 .621-.504 1.125-1.125 1.125h-.375m1.5-3.75v.375c0 .621-.504 1.125-1.125 1.125h-1.5a1.125 1.125 0 0 1-1.125-1.125v-.375m3.75 18.75v-1.5a2.25 2.25 0 0 0-2.25-2.25h-15a2.25 2.25 0 0 0-2.25 2.25v1.5m19.5 0-2.25-2.25m0 0a2.25 2.25 0 0 0-3.182 0l-2.25 2.25m2.25-2.25 2.25 2.25" />
</svg>